<svg width="32" height="32" viewBox="0 0 32 32" fill="none" xmlns="http://www.w3.org/2000/svg">
<path fill-rule="evenodd" clip-rule="evenodd" d="M16.0001 2.66669C17.751 2.66668 19.4848 3.01155 21.1025 3.68161C22.7202 4.35167 24.1901 5.33379 25.4282 6.5719C26.6663 7.81002 27.6484 9.27987 28.3185 10.8975C28.9886 12.5152 29.3334 14.249 29.3334 16C29.3334 23.3638 23.3639 29.3334 16.0001 29.3334C8.63631 29.3334 2.66675 23.3638 2.66675 16C2.66675 8.63625 8.63631 2.66669 16.0001 2.66669ZM17.3334 17.3334H14.6667C11.3658 17.3334 8.53187 19.3326 7.30956 22.1864C9.24356 24.8983 12.4153 26.6667 16.0001 26.6667C19.5848 26.6667 22.7566 24.8983 24.6906 22.1862C23.4683 19.3326 20.6344 17.3334 17.3334 17.3334ZM16.0001 6.66669C13.7909 6.66669 12.0001 8.45756 12.0001 10.6667C12.0001 12.8758 13.7909 14.6667 16.0001 14.6667C18.2092 14.6667 20.0001 12.8758 20.0001 10.6667C20.0001 8.45756 18.2092 6.66669 16.0001 6.66669Z" fill="#C8C8C8"/>
</svg>
