<svg width="32" height="32" viewBox="0 0 32 32" fill="none" xmlns="http://www.w3.org/2000/svg">
<path fill-rule="evenodd" clip-rule="evenodd" d="M6.31677 6.85528C6.44343 6.6439 6.62271 6.46895 6.83713 6.3475C7.05154 6.22605 7.29377 6.16224 7.54019 6.16229H24.4612C24.7077 6.16224 24.9499 6.22605 25.1643 6.3475C25.3787 6.46895 25.558 6.6439 25.6847 6.85528L28.8986 12.2123C28.9635 12.3206 28.9984 12.444 28.9999 12.5702C29.0015 12.6963 28.9695 12.8206 28.9073 12.9303C28.8451 13.0401 28.7549 13.1313 28.6459 13.1948C28.5369 13.2583 28.413 13.2918 28.2869 13.2917H26.697V25.4118C26.697 25.79 26.5468 26.1527 26.2794 26.4201C26.012 26.6875 25.6493 26.8377 25.2711 26.8377H15.2899C14.9117 26.8377 14.5491 26.6875 14.2816 26.4201C14.0142 26.1527 13.864 25.79 13.864 25.4118V17.8546C13.864 17.779 13.834 17.7064 13.7805 17.6529C13.727 17.5995 13.6545 17.5694 13.5788 17.5694H9.15857C9.08294 17.5694 9.0104 17.5995 8.95692 17.6529C8.90344 17.7064 8.8734 17.779 8.8734 17.8546V25.4118C8.8734 25.79 8.72317 26.1527 8.45576 26.4201C8.18836 26.6875 7.82567 26.8377 7.44751 26.8377H6.73456C6.35639 26.8377 5.99371 26.6875 5.7263 26.4201C5.4589 26.1527 5.30867 25.79 5.30867 25.4118V13.2917H3.71452C3.58826 13.292 3.46419 13.2588 3.35499 13.1954C3.24579 13.132 3.15539 13.0407 3.09303 12.9309C3.03067 12.8211 2.99858 12.6968 3.00005 12.5705C3.00152 12.4443 3.03649 12.3207 3.10139 12.2123L6.31677 6.85528ZM16.7158 17.8061C16.7158 17.4782 16.9824 17.2129 17.3104 17.2129H23.2507C23.5786 17.2129 23.8453 17.4796 23.8453 17.8075V21.9654C23.8453 22.2934 23.58 22.56 23.2507 22.56H17.3104C17.2323 22.56 17.155 22.5447 17.0829 22.5148C17.0107 22.4849 16.9452 22.4411 16.89 22.3859C16.8347 22.3307 16.7909 22.2651 16.7611 22.193C16.7312 22.1208 16.7158 22.0435 16.7158 21.9654V17.8061Z" fill="#C8C8C8"/>
</svg>
